<svg width="25" height="25" viewBox="0 0 25 25" fill="none" xmlns="http://www.w3.org/2000/svg">
<path d="M11.742 24.9748C10.2182 24.8144 8.79966 24.3883 7.48638 23.6966C6.17309 23.0049 5.03525 22.1227 4.07284 21.05C3.11044 19.9774 2.35354 18.7493 1.80217 17.3659C1.25079 15.9824 0.975098 14.5188 0.975098 12.975C0.975098 9.86722 2.00267 7.17552 4.0578 4.89986C6.11294 2.6242 8.68437 1.31595 11.7721 0.975098V3.38108C9.34603 3.72193 7.34101 4.79961 5.75705 6.61413C4.17309 8.42864 3.38111 10.5489 3.38111 12.975C3.38111 15.401 4.17309 17.5213 5.75705 19.3358C7.34101 21.1503 9.336 22.228 11.742 22.5688V24.9748ZM12.945 19.02L6.89991 12.9449L8.6142 11.2306L11.742 14.3584V6.99006H14.148V14.3584L17.2458 11.2607L18.9601 13.005L12.945 19.02ZM14.148 24.9748V22.5688C15.0102 22.4485 15.8373 22.2179 16.6292 21.8771C17.4212 21.5362 18.1581 21.1052 18.8398 20.5839L20.5841 22.3282C19.6418 23.0701 18.6292 23.6665 17.5465 24.1177C16.4638 24.5688 15.331 24.8545 14.148 24.9748ZM18.8999 5.36602C18.1982 4.84472 17.4513 4.41365 16.6593 4.0728C15.8673 3.73196 15.0403 3.50138 14.1781 3.38108V0.975098C15.3611 1.0954 16.4939 1.38111 17.5766 1.83223C18.6593 2.28335 19.6618 2.87984 20.5841 3.62168L18.8999 5.36602ZM22.2683 20.5839L20.5841 18.8696C21.1054 18.1879 21.5265 17.4511 21.8473 16.6591C22.1681 15.8671 22.3886 15.0401 22.5089 14.1779H24.9751C24.8147 15.3609 24.5139 16.4987 24.0728 17.5914C23.6317 18.6842 23.0302 19.6816 22.2683 20.5839ZM22.5089 11.772C22.3886 10.9098 22.1681 10.0828 21.8473 9.29079C21.5265 8.49882 21.1054 7.76198 20.5841 7.08029L22.2683 5.36602C23.0302 6.26827 23.6418 7.26575 24.1029 8.35847C24.5641 9.45118 24.8548 10.589 24.9751 11.772H22.5089Z" fill="white"/>
</svg>
